# xmcd
#
# Track frame offsets:
# 150
# 19327
# 32554
# 49047
# 67458
# 84069
# 96248
# 114581
# 131468
# 146711
# 160444
# 178947
# 193493
# 210209
#
# Disc length: 3023 seconds
#
#
# Revision: 0
# Processed by: cddbd v1.5.2PL0 Copyright (c) Steve Scherf et al.
# Submitted via: FreeRIP 2.951 
#
DISCID=cc0bcd0e
DTITLE=Leonardo - Coração Bandidio- ELIAS FILHO, CD's, MP3 EM SEU CELULAR 9913-7768 - 8108-2022
DYEAR=2009
DGENRE=Sertanejo
TTITLE0=Coração Bandido
TTITLE1=Rodo Sem Borracha
TTITLE2=Porque É Tão Cruel O Amor
TTITLE3=Mentirosa
TTITLE4=Dois Passarinhos
TTITLE5=Por Favor Reza Pra Nóis
TTITLE6=Cartas E Flores
TTITLE7=Volte Amor
TTITLE8=Se Entreaga Amor
TTITLE9=Pega Fogo Cabaré
TTITLE10=Quem Dá Mais?
TTITLE11=Quebradeira
TTITLE12=A Fila Anda
TTITLE13=Tá Rindo de Quê
EXTD=
EXTT0=
EXTT1=
EXTT2=
EXTT3=
EXTT4=
EXTT5=
EXTT6=
EXTT7=
EXTT8=
EXTT9=
EXTT10=
EXTT11=
EXTT12=
EXTT13=
PLAYORDER=
